<svg xmlns="http://www.w3.org/2000/svg" height="48" viewBox="0 96 960 960" width="48"><path d="M482.308 902q-136.75 0-231.375-94.625Q156.307 712.75 156.307 576q0-124.955 80.523-215.978Q317.353 269 437.693 252.846q-2.985 0-2.916.115.07.116 6.07-.522-14.308 30.792-20.924 64.984-6.615 34.192-6.615 66.577 0 108.667 76.667 184.833Q566.641 645 675.308 645q33.506 0 65.138-4.885 31.631-4.885 64.554-20.731-1.538.769-.923 1.962.616 1.192.616-.731-15.385 120.34-106.657 200.863Q606.763 902 482.308 902Zm0-43.769q89.461 0 161.692-51.5 72.231-51.5 100.385-128.808-15.923 4.923-33.975 7.885-18.051 2.961-34.102 2.961-127.475 0-217.122-89.062Q369.539 510.644 369.539 384q0-17.462 2.346-34.731 2.346-17.269 9.5-36.808-81.231 32.308-131.27 104.432Q200.077 489.016 200.077 576q0 118.153 82.039 200.192t200.192 82.039Zm-10.077-272.385Z"/></svg>