<?xml version="1.0" encoding="utf-8"?><svg viewBox="0 0 48 48" xmlns="http://www.w3.org/2000/svg" xmlns:xlink="http://www.w3.org/1999/xlink"><style>:root>svg{display:none}:root>svg:target{display:block}</style><svg viewBox="0 96 960 960" id="arrow" xmlns="http://www.w3.org/2000/svg"><path d="M458.615 878.231V359.385L210.769 607.231l-32-31.231L480 274.769 782.231 576l-32 31.231-247.846-247.846v518.846h-43.77Z"/></svg><svg viewBox="0 96 960 960" id="buy" xmlns="http://www.w3.org/2000/svg"><path d="M185 942V352h153.615v-24.616q0-57.846 41.009-98.115Q420.632 189 479.92 189q59.289 0 100.877 40.269 41.588 40.269 41.588 98.03v24.616H775V942H185Zm197.385-614.616V352h196.23v-24.616q0-39.153-28.81-66.884t-69.885-27.731q-41.074 0-69.305 27.731-28.23 27.731-28.23 66.884ZM228.769 898.231h502.462V395.769H622.385v120h-43.77v-120h-196.23v120h-43.77v-120H228.769v502.462Zm0 0V395.769v502.462Z"/></svg><svg viewBox="0 96 960 960" id="cart" xmlns="http://www.w3.org/2000/svg"><path d="M286.214 950.385q-26.172 0-43.885-18.187-17.714-18.188-17.714-44.676 0-26.489 17.778-44.429 17.777-17.939 43.867-17.939 26.09 0 44.454 18.187 18.363 18.187 18.363 44.676t-18.187 44.428q-18.188 17.94-44.676 17.94Zm387.384 0q-26.171 0-43.884-18.187Q612 914.01 612 887.522q0-26.489 17.777-44.429 17.778-17.939 43.868-17.939 26.09 0 44.453 18.187 18.364 18.187 18.364 44.676t-18.188 44.428q-18.187 17.94-44.676 17.94ZM228.385 305.539l111.077 232.23h286.384l127.385-232.23H228.385Zm-46.078 438.692 108.847-200.846-150.462-317.616H65.846V182H168.46l37.77 79.769h623.692l-176.769 319.77H320l-65.385 118.923h482.847v43.769H182.307Zm157.155-206.462h286.384-286.384Z"/></svg><svg viewBox="0 96 960 960" id="close" xmlns="http://www.w3.org/2000/svg"><path d="m250.846 837.154-31-32L449 576 219.846 345.846l31-32L481 544l228.154-230.154 31 32L512 576l228.154 229.154-31 32L481 607 250.846 837.154Z"/></svg><svg viewBox="0 96 960 960" id="dark" xmlns="http://www.w3.org/2000/svg"><path d="M482.308 902q-136.75 0-231.375-94.625Q156.307 712.75 156.307 576q0-124.955 80.523-215.978Q317.353 269 437.693 252.846q-2.985 0-2.916.115.07.116 6.07-.522-14.308 30.792-20.924 64.984-6.615 34.192-6.615 66.577 0 108.667 76.667 184.833Q566.641 645 675.308 645q33.506 0 65.138-4.885 31.631-4.885 64.554-20.731-1.538.769-.923 1.962.616 1.192.616-.731-15.385 120.34-106.657 200.863Q606.763 902 482.308 902Zm0-43.769q89.461 0 161.692-51.5 72.231-51.5 100.385-128.808-15.923 4.923-33.975 7.885-18.051 2.961-34.102 2.961-127.475 0-217.122-89.062Q369.539 510.644 369.539 384q0-17.462 2.346-34.731 2.346-17.269 9.5-36.808-81.231 32.308-131.27 104.432Q200.077 489.016 200.077 576q0 118.153 82.039 200.192t200.192 82.039Zm-10.077-272.385Z"/></svg><svg viewBox="0 96 960 960" id="down" xmlns="http://www.w3.org/2000/svg"><path d="M481 693.308 257.692 470l31.231-31.231L481 630.846l192.077-192.077L704.308 470 481 693.308Z"/></svg><svg viewBox="0 96 960 960" id="menu" xmlns="http://www.w3.org/2000/svg"><path d="M120 816v-60h720v60H120Zm0-210v-60h720v60H120Zm0-210v-60h720v60H120Z"/></svg><svg viewBox="0 96 960 960" id="up" xmlns="http://www.w3.org/2000/svg"><path d="M288.923 687.231 257.692 656 481 432.692 704.308 656l-31.231 31.231L481 495.154 288.923 687.231Z"/></svg></svg>