<svg xmlns="http://www.w3.org/2000/svg" height="48" viewBox="0 96 960 960" width="48"><path d="M286.214 950.385q-26.172 0-43.885-18.187-17.714-18.188-17.714-44.676 0-26.489 17.778-44.429 17.777-17.939 43.867-17.939 26.09 0 44.454 18.187 18.363 18.187 18.363 44.676t-18.187 44.428q-18.188 17.94-44.676 17.94Zm387.384 0q-26.171 0-43.884-18.187Q612 914.01 612 887.522q0-26.489 17.777-44.429 17.778-17.939 43.868-17.939 26.09 0 44.453 18.187 18.364 18.187 18.364 44.676t-18.188 44.428q-18.187 17.94-44.676 17.94ZM228.385 305.539l111.077 232.23h286.384l127.385-232.23H228.385Zm-46.078 438.692 108.847-200.846-150.462-317.616H65.846V182H168.46l37.77 79.769h623.692l-176.769 319.77H320l-65.385 118.923h482.847v43.769H182.307Zm157.155-206.462h286.384-286.384Z"/></svg>